<svg width="141" height="36" viewBox="0 0 141 36" fill="none" xmlns="http://www.w3.org/2000/svg">
<path d="M50.0163 8.54545H45.7976V26H50.0163V8.54545ZM56.8324 18.5341C56.8409 17.0426 57.7102 16.1562 59.0312 16.1562C60.3523 16.1562 61.1364 17.0256 61.1278 18.4744V26H65.2955V17.6562C65.304 14.7074 63.5057 12.7386 60.7528 12.7386C58.8182 12.7386 57.3523 13.7188 56.7727 15.3125H56.6278V12.9091H52.6648V26H56.8324V18.5341ZM80.1058 12.9091H75.7166L73.2962 21.9261H73.1598L70.7479 12.9091H66.3587L70.8416 26H75.6143L80.1058 12.9091ZM87.3928 26.2472C91.5092 26.2472 94.0064 23.5284 94.0064 19.4972C94.0064 15.4574 91.5092 12.7386 87.3928 12.7386C83.2763 12.7386 80.7791 15.4574 80.7791 19.4972C80.7791 23.5284 83.2763 26.2472 87.3928 26.2472ZM87.4183 23.1023C85.8757 23.1023 85.0234 21.6364 85.0234 19.4716C85.0234 17.2983 85.8757 15.8239 87.4183 15.8239C88.9098 15.8239 89.7621 17.2983 89.7621 19.4716C89.7621 21.6364 88.9098 23.1023 87.4183 23.1023ZM96.1413 26H100.309V12.9091H96.1413V26ZM98.2294 11.3835C99.4141 11.3835 100.369 10.4886 100.369 9.3892C100.369 8.28977 99.4141 7.40341 98.2294 7.40341C97.0533 7.40341 96.0902 8.28977 96.0902 9.3892C96.0902 10.4886 97.0533 11.3835 98.2294 11.3835ZM109.072 26.2472C112.754 26.2472 115.038 24.108 115.149 20.8693H111.254C111.101 22.2585 110.266 23.017 109.124 23.017C107.658 23.017 106.703 21.7812 106.703 19.4545C106.703 17.1449 107.666 15.9091 109.124 15.9091C110.317 15.9091 111.092 16.7188 111.254 18.0568H115.149C115.055 14.8352 112.703 12.7386 109.064 12.7386C104.947 12.7386 102.459 15.483 102.459 19.4972C102.459 23.4943 104.93 26.2472 109.072 26.2472ZM123.401 26.2472C126.836 26.2472 129.094 24.5852 129.572 22.0114L125.745 21.9006C125.421 22.7699 124.569 23.2386 123.478 23.2386C121.876 23.2386 120.887 22.1733 120.887 20.571V20.4602H129.614V19.4205C129.614 15.108 126.989 12.7386 123.273 12.7386C119.319 12.7386 116.779 15.4489 116.779 19.5057C116.779 23.6989 119.285 26.2472 123.401 26.2472ZM120.887 18.0398C120.947 16.7358 121.978 15.7472 123.359 15.7472C124.731 15.7472 125.719 16.7017 125.737 18.0398H120.887ZM131.743 26H135.911V18.892C135.911 17.3324 137.018 16.2841 138.51 16.2841C139.004 16.2841 139.746 16.3693 140.146 16.5057V12.8835C139.797 12.7898 139.362 12.7301 138.979 12.7301C137.547 12.7301 136.405 13.5653 135.928 15.2955H135.791V12.9091H131.743V26Z" fill="currentColor"/>
<path d="M31.4551 27.9271V4.13168C31.4551 2.4739 30.4324 0.00808367 27.6135 0.00808367H5.68779C5.29332 -0.0215463 3.84109 -0.0335991 2.46695 1.18575C0.829991 2.63863 0 5.21141 0 8.83481V9.95422H4.46133V32.2285C4.46133 33.5583 4.81876 34.5753 5.5241 35.2497C6.08176 35.7831 6.68849 35.9382 7.04241 35.9819V36H30.4233C34.8346 36 36 31.446 36 29.038V27.916L31.4551 27.9271ZM2.2612 7.7159C2.41989 5.00149 3.14876 3.65961 3.80454 2.99569C4.12042 3.24579 4.46133 3.89313 4.46133 5.27318V7.7159H2.2612ZM8.98423 29.0997C8.98423 32.6227 7.94649 33.6768 7.28971 33.7562C7.00737 33.7039 6.69149 33.2786 6.69149 32.228V5.27318C6.69149 3.92477 6.41566 2.94246 6.01418 2.23837L27.6135 2.2459C29.0822 2.2459 29.2179 3.69476 29.2239 4.13168V27.9331L8.98423 27.9838V29.0997ZM30.4233 33.7617H10.3604C10.7694 32.927 11.0807 31.783 11.1809 30.2151L33.6687 30.1594C33.4465 31.5585 32.7296 33.7617 30.4233 33.7617ZM19.8677 7.04948H26.8341V9.2873H19.8677V7.04948ZM19.8677 12.0223H26.8341V14.2596H19.8677V12.0223ZM19.8677 16.8786H26.8341V19.1159H19.8677V16.8786ZM10.3604 21.9795H26.9297V24.2173H10.3604V21.9795ZM16.9172 13.5721C16.9172 13.8568 16.8742 14.1431 16.7891 14.4218C16.702 14.7096 16.5543 14.9788 16.351 15.2213C16.1503 15.4614 15.887 15.6708 15.5691 15.8421C15.3048 15.9842 14.9884 16.0942 14.627 16.169V17.8042H12.4864V16.2277C11.9358 16.17 11.4732 16.0736 11.1093 15.941C10.7013 15.7933 10.4049 15.6723 10.2037 15.5704L10.0029 15.4694L10.7373 13.4983L10.9851 13.6188C11.275 13.7604 11.6274 13.8915 12.0319 14.008C12.4278 14.123 12.8534 14.1813 13.2964 14.1813C13.9156 14.1813 14.1504 14.0763 14.235 14.014C14.3652 13.9186 14.4257 13.7901 14.4257 13.6093C14.4257 13.4938 14.4012 13.4003 14.3506 13.324C14.2926 13.2361 14.203 13.1528 14.0848 13.0764C13.9512 12.9895 13.777 12.9022 13.5667 12.8173C13.3444 12.7269 13.0876 12.6305 12.7968 12.5275C12.5029 12.42 12.2141 12.3015 11.9358 12.173C11.6454 12.0389 11.3776 11.8716 11.1398 11.6758C10.892 11.4709 10.6913 11.2178 10.5421 10.9225C10.3899 10.6232 10.3128 10.2621 10.3128 9.84926C10.3128 9.5379 10.3584 9.23306 10.448 8.9453C10.5396 8.65101 10.6833 8.37931 10.8755 8.13826C11.0692 7.89569 11.3225 7.68778 11.6279 7.52055C11.8757 7.38445 12.164 7.27798 12.4869 7.20315V5.74626H14.6275V7.12933C14.9959 7.17302 15.3243 7.23328 15.6066 7.30811C15.942 7.39801 16.2159 7.48991 16.4201 7.58332L16.6118 7.6702L16.0827 9.72371L15.8154 9.60971C15.5441 9.49471 15.2227 9.39326 14.8613 9.3099C14.5033 9.22754 14.1214 9.18585 13.7264 9.18585C13.2799 9.18585 13.0741 9.27173 12.98 9.34304C12.8589 9.43595 12.8048 9.54292 12.8048 9.69157C12.8048 9.78599 12.8223 9.86584 12.8569 9.9271C12.8929 9.99088 12.955 10.0517 13.0416 10.1069C13.1497 10.1772 13.2874 10.2465 13.4511 10.3148C13.6253 10.3881 13.8355 10.4665 14.0813 10.5518C14.4753 10.696 14.8412 10.8547 15.1736 11.0229C15.517 11.1982 15.8194 11.4016 16.0727 11.6281C16.3355 11.8626 16.5438 12.1418 16.6924 12.4587C16.8411 12.7801 16.9172 13.1538 16.9172 13.5721Z" fill="currentColor"/>
</svg>
