<svg width="72" height="72" viewBox="0 0 72 72" fill="none" xmlns="http://www.w3.org/2000/svg">
<path d="M62.835 55.6091V8.2271C62.835 4.9261 60.792 0.0160964 55.161 0.0160964H11.362C10.574 -0.0429036 7.673 -0.0669034 4.928 2.3611C1.658 5.2541 0 10.3771 0 17.5921V19.8211H8.912V64.1741C8.912 66.8221 9.626 68.8471 11.035 70.1901C12.149 71.2521 13.361 71.5611 14.068 71.6481V71.6841H60.774C69.586 71.6841 71.914 62.6161 71.914 57.8211V55.5871L62.835 55.6091ZM4.517 15.3641C4.834 9.9591 6.29 7.2871 7.6 5.9651C8.231 6.4631 8.912 7.7521 8.912 10.5001V15.3641H4.517V15.3641ZM17.947 57.9441C17.947 64.9591 15.874 67.0581 14.562 67.2161C13.998 67.1121 13.367 66.2651 13.367 64.1731V10.5001C13.367 7.8151 12.816 5.8591 12.014 4.4571L55.161 4.4721C58.095 4.4721 58.366 7.3571 58.378 8.2271V55.6211L17.947 55.7221V57.9441ZM60.774 67.2271H20.696C21.513 65.5651 22.135 63.2871 22.335 60.1651L67.257 60.0541C66.813 62.8401 65.381 67.2271 60.774 67.2271ZM39.688 14.0371H53.604V18.4931H39.688V14.0371ZM39.688 23.9391H53.604V28.3941H39.688V23.9391ZM39.688 33.6091H53.604V38.0641H39.688V33.6091ZM20.696 43.7661H53.795V48.2221H20.696V43.7661ZM33.794 27.0251C33.794 27.5921 33.708 28.1621 33.538 28.7171C33.364 29.2901 33.069 29.8261 32.663 30.3091C32.262 30.7871 31.736 31.2041 31.101 31.5451C30.573 31.8281 29.941 32.0471 29.219 32.1961V35.4521H24.943V32.3131C23.843 32.1981 22.919 32.0061 22.192 31.7421C21.377 31.4481 20.785 31.2071 20.383 31.0041L19.982 30.8031L21.449 26.8781L21.944 27.1181C22.523 27.4001 23.227 27.6611 24.035 27.8931C24.826 28.1221 25.676 28.2381 26.561 28.2381C27.798 28.2381 28.267 28.0291 28.436 27.9051C28.696 27.7151 28.817 27.4591 28.817 27.0991C28.817 26.8691 28.768 26.6831 28.667 26.5311C28.551 26.3561 28.372 26.1901 28.136 26.0381C27.869 25.8651 27.521 25.6911 27.101 25.5221C26.657 25.3421 26.144 25.1501 25.563 24.9451C24.976 24.7311 24.399 24.4951 23.843 24.2391C23.263 23.9721 22.728 23.6391 22.253 23.2491C21.758 22.8411 21.357 22.3371 21.059 21.7491C20.755 21.1531 20.601 20.4341 20.601 19.6121C20.601 18.9921 20.692 18.3851 20.871 17.8121C21.054 17.2261 21.341 16.6851 21.725 16.2051C22.112 15.7221 22.618 15.3081 23.228 14.9751C23.723 14.7041 24.299 14.4921 24.944 14.3431V11.4421H29.22V14.1961C29.956 14.2831 30.612 14.4031 31.176 14.5521C31.846 14.7311 32.393 14.9141 32.801 15.1001L33.184 15.2731L32.127 19.3621L31.593 19.1351C31.051 18.9061 30.409 18.7041 29.687 18.5381C28.972 18.3741 28.209 18.2911 27.42 18.2911C26.528 18.2911 26.117 18.4621 25.929 18.6041C25.687 18.7891 25.579 19.0021 25.579 19.2981C25.579 19.4861 25.614 19.6451 25.683 19.7671C25.755 19.8941 25.879 20.0151 26.052 20.1251C26.268 20.2651 26.543 20.4031 26.87 20.5391C27.218 20.6851 27.638 20.8411 28.129 21.0111C28.916 21.2981 29.647 21.6141 30.311 21.9491C30.997 22.2981 31.601 22.7031 32.107 23.1541C32.632 23.6211 33.048 24.1771 33.345 24.8081C33.642 25.4481 33.794 26.1921 33.794 27.0251Z" fill="currentColor"/>
</svg>
