<svg width="86" height="90" viewBox="0 0 86 90" fill="none" xmlns="http://www.w3.org/2000/svg">
<path d="M66.829 0H25C22.243 0 20 2.243 20 5V6H5C2.243 6 0 8.243 0 11V85C0 87.757 2.243 90 5 90H61C63.757 90 66 87.757 66 85V84H81C83.757 84 86 81.757 86 79V19.171L66.829 0ZM68 6.829L79.171 18H69C68.458 18 68 17.542 68 17V6.829ZM62 85C62 85.551 61.551 86 61 86H5C4.449 86 4 85.551 4 85V11C4 10.449 4.449 10 5 10H20V31H13V35H20V41H13V45H20V51H13V55H20V61H13V65H20V79C20 81.757 22.243 84 25 84H62V85ZM81 80H25C24.449 80 24 79.551 24 79V5C24 4.449 24.449 4 25 4H64V17C64 19.757 66.243 22 69 22H82V79C82 79.551 81.551 80 81 80ZM33 25H73V29H33V25ZM33 35H73V39H33V35ZM33 45H73V49H33V45ZM33 55H73V59H33V55Z" fill="black"/>
</svg>
