<svg width="168" height="226" viewBox="0 0 168 226" fill="none" xmlns="http://www.w3.org/2000/svg">
<path d="M84.0002 125.48C80.62 125.48 77.3375 126.614 74.6776 128.7C72.0177 130.786 70.134 133.703 69.3277 136.986C68.5215 140.269 68.8392 143.727 70.2301 146.808C71.621 149.888 74.0047 152.414 77.0002 153.98V175.59C77.0002 177.447 77.7377 179.227 79.0504 180.54C80.3632 181.852 82.1437 182.59 84.0002 182.59C85.8567 182.59 87.6372 181.852 88.9499 180.54C90.2627 179.227 91.0002 177.447 91.0002 175.59V153.98C93.9956 152.414 96.3794 149.888 97.7703 146.808C99.1612 143.727 99.4789 140.269 98.6726 136.986C97.8664 133.703 95.9827 130.786 93.3228 128.7C90.6629 126.614 87.3804 125.48 84.0002 125.48Z" fill="black"/>
<path fill-rule="evenodd" clip-rule="evenodd" d="M125.635 17.2456C136.677 28.2877 142.88 43.2641 142.88 58.88V93.61C150.031 95.325 156.397 99.3959 160.953 105.168C165.51 110.939 167.992 118.076 168 125.43V193.19C167.989 201.857 164.542 210.165 158.414 216.294C152.285 222.422 143.977 225.869 135.31 225.88H32.69C24.0233 225.869 15.7146 222.422 9.58637 216.294C3.4581 210.165 0.0105853 201.857 0 193.19V125.43C0.00529151 116.76 3.45047 108.446 9.57931 102.313C15.7082 96.1809 24.0199 92.7306 32.69 92.72H128.88L128.88 58.88C128.88 46.9771 124.152 35.5617 115.735 27.1451C107.318 18.7284 95.903 14 84.0001 14C72.0972 14 60.6818 18.7284 52.2652 27.1451C43.8485 35.5617 39.1201 46.9771 39.1201 58.88V71.88C39.1201 73.7365 38.3826 75.517 37.0699 76.8297C35.7571 78.1425 33.9767 78.88 32.1201 78.88C30.2636 78.88 28.4831 78.1425 27.1704 76.8297C25.8576 75.517 25.1201 73.7365 25.1201 71.88V58.88C25.1201 43.2641 31.3235 28.2877 42.3657 17.2456C53.4078 6.20341 68.3842 0 84.0001 0C99.6161 0 114.592 6.20341 125.635 17.2456ZM154 193.17C153.992 198.124 152.02 202.874 148.517 206.377C145.014 209.88 140.264 211.852 135.31 211.86H32.69C27.7355 211.852 22.9863 209.88 19.4829 206.377C15.9796 202.874 14.0079 198.124 14 193.17V125.43C14.0053 120.475 15.9761 115.724 19.48 112.22C22.9839 108.716 27.7347 106.745 32.69 106.74H135.31C140.265 106.745 145.016 108.716 148.52 112.22C152.024 115.724 153.995 120.475 154 125.43V193.17Z" fill="black"/>
<path d="M25.1201 58.88C25.1201 43.2641 31.3235 28.2877 42.3657 17.2456C53.4078 6.20341 68.3842 0 84.0001 0C99.6161 0 114.592 6.20341 125.635 17.2456C136.677 28.2877 142.88 43.2641 142.88 58.88L142.88 71.88C142.88 73.7365 142.142 75.517 140.83 76.8298C139.517 78.1425 137.736 78.88 135.88 78.88C134.023 78.88 132.243 78.1425 130.93 76.8298C129.617 75.517 128.88 73.7365 128.88 71.88L128.88 58.88C128.88 46.9771 124.152 35.5617 115.735 27.1451C107.318 18.7284 95.903 14 84.0001 14C72.0972 14 60.6818 18.7284 52.2652 27.1451C43.8485 35.5617 39.1201 46.9771 39.1201 58.88L39.1199 103H25.1199L25.1201 58.88Z" fill="black"/>
</svg>
