<svg width="76" height="78" viewBox="0 0 76 78" fill="none" xmlns="http://www.w3.org/2000/svg">
<path d="M73.5001 11H50.9001V7.20001C50.9001 6.28076 50.719 5.37051 50.3673 4.52123C50.0155 3.67195 49.4999 2.90028 48.8498 2.25027C48.1998 1.60026 47.4282 1.08464 46.5789 0.732856C45.7296 0.381073 44.8194 0.200012 43.9001 0.200012H32.1001C30.2436 0.200012 28.4631 0.93751 27.1504 2.25027C25.8376 3.56302 25.1001 5.3435 25.1001 7.20001V11H2.5001C1.96966 11 1.46096 11.2107 1.08588 11.5858C0.710811 11.9609 0.500097 12.4696 0.500097 13C0.485662 13.2665 0.52751 13.5329 0.622913 13.7821C0.718316 14.0313 0.865135 14.2576 1.05381 14.4463C1.24249 14.635 1.46879 14.7818 1.71798 14.8772C1.96717 14.9726 2.23366 15.0144 2.5001 15H8.8001V62.8C8.8001 66.7783 10.3804 70.5936 13.1935 73.4066C16.0065 76.2197 19.8218 77.8 23.8001 77.8H52.3001C56.2783 77.8 60.0937 76.2197 62.9067 73.4066C65.7197 70.5936 67.3001 66.7783 67.3001 62.8V15H73.5001C73.7665 15.0144 74.033 14.9726 74.2822 14.8772C74.5314 14.7818 74.7577 14.635 74.9464 14.4463C75.1351 14.2576 75.2819 14.0313 75.3773 13.7821C75.4727 13.5329 75.5145 13.2665 75.5001 13C75.5001 12.4696 75.2894 11.9609 74.9143 11.5858C74.5392 11.2107 74.0305 11 73.5001 11ZM29.1001 7.20001C29.1001 6.40436 29.4162 5.6413 29.9788 5.07869C30.5414 4.51608 31.3044 4.20001 32.1001 4.20001H43.9001C44.6957 4.20001 45.4588 4.51608 46.0214 5.07869C46.584 5.6413 46.9001 6.40436 46.9001 7.20001V11H29.1001V7.20001ZM63.3001 62.8C63.3001 65.7174 62.1412 68.5153 60.0783 70.5782C58.0154 72.6411 55.2175 73.8 52.3001 73.8H23.8001C20.8827 73.8 18.0848 72.6411 16.0219 70.5782C13.959 68.5153 12.8001 65.7174 12.8001 62.8V15H63.3001V62.8Z" fill="black"/>
<path d="M24.3 62.3C24.8305 62.3 25.3392 62.0893 25.7143 61.7142C26.0893 61.3392 26.3 60.8305 26.3 60.3V26.3C26.3 25.7696 26.0893 25.2609 25.7143 24.8858C25.3392 24.5107 24.8305 24.3 24.3 24.3C23.7696 24.3 23.2609 24.5107 22.8858 24.8858C22.5108 25.2609 22.3 25.7696 22.3 26.3V60.3C22.3 60.8305 22.5108 61.3392 22.8858 61.7142C23.2609 62.0893 23.7696 62.3 24.3 62.3Z" fill="black"/>
<path d="M38 62.3C38.5304 62.3 39.0391 62.0893 39.4142 61.7142C39.7893 61.3392 40 60.8305 40 60.3V26.3C40 25.7696 39.7893 25.2609 39.4142 24.8858C39.0391 24.5107 38.5304 24.3 38 24.3C37.4696 24.3 36.9609 24.5107 36.5858 24.8858C36.2107 25.2609 36 25.7696 36 26.3V60.3C36 60.8305 36.2107 61.3392 36.5858 61.7142C36.9609 62.0893 37.4696 62.3 38 62.3Z" fill="black"/>
<path d="M51.7002 62.3C52.2306 62.3 52.7393 62.0893 53.1144 61.7142C53.4895 61.3392 53.7002 60.8305 53.7002 60.3V26.3C53.7002 25.7696 53.4895 25.2609 53.1144 24.8858C52.7393 24.5107 52.2306 24.3 51.7002 24.3C51.1698 24.3 50.6611 24.5107 50.286 24.8858C49.9109 25.2609 49.7002 25.7696 49.7002 26.3V60.3C49.7002 60.8305 49.9109 61.3392 50.286 61.7142C50.6611 62.0893 51.1698 62.3 51.7002 62.3Z" fill="black"/>
</svg>
