<svg width="169" height="239" viewBox="0 0 169 239" fill="none" xmlns="http://www.w3.org/2000/svg">
<path d="M143.38 106.18V59.45C143.38 43.8341 137.177 28.8577 126.134 17.8156C115.092 6.77342 100.116 0.570007 84.5 0.570007C68.8841 0.570007 53.9077 6.77342 42.8656 17.8156C31.8234 28.8577 25.62 43.8341 25.62 59.45V72.45C25.62 74.3065 26.3575 76.087 27.6702 77.3998C28.983 78.7125 30.7635 79.45 32.62 79.45C34.4765 79.45 36.257 78.7125 37.5697 77.3998C38.8825 76.087 39.62 74.3065 39.62 72.45V59.45C39.62 47.5471 44.3484 36.1317 52.765 27.7151C61.1817 19.2984 72.5971 14.57 84.5 14.57C96.4029 14.57 107.818 19.2984 116.235 27.7151C124.652 36.1317 129.38 47.5471 129.38 59.45V105.29H33.19C24.5199 105.301 16.2082 108.751 10.0793 114.883C3.95047 121.016 0.505292 129.33 0.5 138V205.76C0.510585 214.427 3.9581 222.735 10.0864 228.864C16.2146 234.992 24.5233 238.439 33.19 238.45H135.81C144.477 238.439 152.785 234.992 158.914 228.864C165.042 222.735 168.489 214.427 168.5 205.76V138C168.492 130.646 166.01 123.509 161.453 117.738C156.897 111.966 150.531 107.895 143.38 106.18V106.18ZM154.5 205.74C154.492 210.694 152.52 215.444 149.017 218.947C145.514 222.45 140.764 224.422 135.81 224.43H33.19C28.2355 224.422 23.4863 222.45 19.9829 218.947C16.4796 215.444 14.5079 210.694 14.5 205.74V138C14.5053 133.045 16.4761 128.294 19.98 124.79C23.4839 121.286 28.2347 119.315 33.19 119.31H135.81C140.765 119.315 145.516 121.286 149.02 124.79C152.524 128.294 154.495 133.045 154.5 138V205.74Z" fill="black"/>
<path d="M84.5002 138.05C81.12 138.05 77.8375 139.184 75.1776 141.27C72.5177 143.356 70.634 146.273 69.8277 149.556C69.0215 152.839 69.3392 156.297 70.7301 159.378C72.121 162.458 74.5047 164.984 77.5002 166.55V188.16C77.5002 190.017 78.2377 191.797 79.5504 193.11C80.8632 194.422 82.6437 195.16 84.5002 195.16C86.3567 195.16 88.1372 194.422 89.4499 193.11C90.7627 191.797 91.5002 190.017 91.5002 188.16V166.55C94.4956 164.984 96.8794 162.458 98.2703 159.378C99.6612 156.297 99.9789 152.839 99.1726 149.556C98.3664 146.273 96.4827 143.356 93.8228 141.27C91.1629 139.184 87.8804 138.05 84.5002 138.05V138.05Z" fill="black"/>
</svg>
